<svg xmlns="http://www.w3.org/2000/svg" width="76" height="76"><path fill="#e72f43" d="M11.54 51.86c0-6.93 5.67-12.6 12.6-12.6s12.6 5.67 12.6 12.6-5.67 12.6-12.6 12.6-12.6-5.67-12.6-12.6zm2.52 0c0 5.117 3.865 9.372 8.82 9.998v-1.179c0-.756.504-1.26 1.26-1.26s1.26.504 1.26 1.26v1.179c4.954-.626 8.82-4.881 8.82-9.999 0-5.116-3.866-9.372-8.82-9.997v1.178c0 .756-.504 1.26-1.26 1.26s-1.26-.504-1.26-1.26v-1.178c-4.955.625-8.82 4.88-8.82 9.997zm3.78 0a2.527 2.527 0 012.52-2.52 2.527 2.527 0 012.52 2.52 2.527 2.527 0 01-2.52 2.52 2.527 2.527 0 01-2.52-2.52zm7.56 0a2.527 2.527 0 012.52-2.52 2.527 2.527 0 012.52 2.52 2.527 2.527 0 01-2.52 2.52 2.527 2.527 0 01-2.52-2.52zm39.06-22.68c0 .756-.504 1.26-1.26 1.26H45.56c-.756 0-1.26-.504-1.26-1.26s.504-1.26 1.26-1.26H63.2c.756 0 1.26.504 1.26 1.26zm0 5.04c0 .756-.504 1.26-1.26 1.26H45.56c-.756 0-1.26-.504-1.26-1.26s.504-1.26 1.26-1.26H63.2c.756 0 1.26.504 1.26 1.26zM75.8 17.84v9.576c0 6.3-2.394 12.474-6.678 17.135-3.906 4.285-5.922 9.702-5.922 15.498v3.15c0 3.528-2.772 6.3-6.3 6.3h-1.26v5.04c0 .756-.504 1.26-1.26 1.26s-1.26-.504-1.26-1.26V69.5h-1.26a6.323 6.323 0 01-3.66-1.145c-.185 4.105-3.56 7.445-7.68 7.445H7.76C3.602 75.8.2 72.398.2 68.24V35.48c0-4.157 3.402-7.559 7.56-7.56h25.209c-.006-.21-.009-.42-.009-.63v-9.45c0-.755.504-1.26 1.26-1.26H38V3.98C38 1.839 39.638.2 41.78.2s3.78 1.639 3.78 3.78v12.6H63.2V3.98C63.2 1.839 64.838.2 66.98.2s3.78 1.639 3.78 3.78v12.6h3.78c.756 0 1.26.505 1.26 1.26zM65.72 3.98v12.6h2.52V3.98c0-.756-.504-1.26-1.26-1.26s-1.26.504-1.26 1.26zm-25.2 12.6h2.52V3.98c0-.756-.504-1.26-1.26-1.26s-1.26.504-1.26 1.26zm-6.19 18.9H9.65c-1.008 0-1.89.882-1.89 1.89v28.98c0 1.007.882 1.89 1.89 1.89h28.98c1.008 0 1.89-.883 1.89-1.89V45.686c-.252-.379-.63-.757-.882-1.135a25.229 25.229 0 01-4.689-7.448 25.512 25.512 0 01-.618-1.623zm11.23 24.443c0-3.548-.84-7.048-2.394-10.22V66.35c-.126 2.393-2.142 4.41-4.536 4.41H9.65c-2.394 0-4.41-2.017-4.41-4.41V37.37c0-2.394 2.016-4.41 4.41-4.41h23.96a25.402 25.402 0 01-.466-2.646H7.76v.126a5.055 5.055 0 00-5.04 5.04v32.76a5.055 5.055 0 005.04 5.04h32.76a5.055 5.055 0 005.04-5.04zM73.28 27.29V19.1h-37.8v8.316c0 .412.013.824.035 1.234.057.126.09.261.09.404.165 2.192.664 4.36 1.455 6.423l.024.063.087.22a24.214 24.214 0 003.904 6.507l.06.07c.129.153.26.303.393.45.504.505.882 1.009 1.386 1.639l.014.027a25.459 25.459 0 015.278 15.47V64.2c.421 1.631 1.86 2.78 3.654 2.78h5.04c2.142 0 3.78-1.638 3.78-3.78v-3.277a25.44 25.44 0 016.678-17.135c3.906-4.284 5.922-9.702 5.922-15.498z"/></svg>