<svg xmlns="http://www.w3.org/2000/svg" width="53" height="52"><path fill="#fff" d="M52.15 50.725c0 .256-.085.512-.256.682-.256.086-.427.17-.683.17h-.085l-4.097-.51c-.257 0-.427-.171-.598-.342l-2.56-3.751-14.938-14.922-1.28 1.28c-.086.085-.257.17-.513.17a.775.775 0 01-.597-.256l-1.652-1.65L7.935 50.555c-.683.597-1.537 1.023-2.476 1.023-.939 0-1.707-.341-2.39-.938l-1.195-1.194A3.414 3.414 0 01.85 46.974c0-.938.341-1.876 1.024-2.558l16.901-18.844L1.875 8.69A3.413 3.413 0 01.85 6.217c0-.938.341-1.79 1.024-2.473L4.18 1.442a3.506 3.506 0 014.95 0l16.504 16.485 2.702-3.013a.778.778 0 01.455-.245c1.34-1.685 1.296-3.975-.199-5.468-3.414-3.41-5.377-3.41-9.133-3.41h-1.11c-.426 0-.768-.256-.853-.683-.086-.426.085-.767.512-.938C25.347.845 30.384.42 35.334 2.721c2.305 1.023 3.159 1.875 4.951 3.666l3.073 3.07c.939.937 1.537 2.131 1.707 3.325.171.512.171.938.171 1.28 0 .681 0 .852.683 1.448.341-.255.768-.511 1.195-.511.427 0 .854.17 1.195.511l2.988 2.985c.512.512.768 1.108.768 1.79 0 .683-.256 1.365-.768 1.79l-6.06 6.055c-.428.597-1.11.852-1.793.852-.683 0-1.366-.255-1.793-.767l-2.987-2.984c-.342-.341-.513-.853-.513-1.28 0-.425.171-.852.513-1.108-.683-.596-.854-.596-1.537-.596-.341 0-.683 0-1.195-.086a5.716 5.716 0 01-1.989-.688l-2.286 2.557 2.056 2.053c.17.171.256.342.256.597a.774.774 0 01-.256.597l-1.195 1.194 14.937 14.921 3.756 2.558c.17.17.342.342.342.597zm-22.108-35.3l3.67 3.667c.684.682 1.452 1.108 2.39 1.193.428.086.769.086 1.025.086.939 0 1.622.085 2.646 1.108.341.341.512.853.512 1.279.086.512-.085.938-.427 1.194l2.988 2.984a.826.826 0 001.195 0l6.06-6.054a.774.774 0 00.256-.597.774.774 0 00-.256-.596l-2.987-2.985c-.256.341-.683.512-1.195.512-.427 0-.94-.17-1.28-.512-1.025-1.023-1.11-1.705-1.11-2.643 0-.256 0-.597-.085-1.023-.086-.853-.513-1.705-1.195-2.387l-3.073-3.07c-1.793-1.79-2.476-2.473-4.524-3.325-3.585-1.62-7.17-1.706-12.036-.171 2.305.256 4.353 1.108 7.085 3.752 2.049 2.046 2.22 5.286.341 7.588zm-10.097 8.843l3.34-3.724 1.21-1.367L7.934 2.635c-.342-.34-.854-.511-1.28-.511-.428 0-.94.17-1.281.511L3.069 4.938c-.341.34-.512.767-.512 1.279 0 .512.17.938.512 1.279zm4.114 5.737a.888.888 0 01.179-.255l5.633-6.31a.987.987 0 01.205-.16l2.527-2.824-3.625-3.621-25.824 28.86c-.426.426-.597.852-.597 1.364 0 .426.17.852.512 1.194l1.195 1.108c.342.341.768.511 1.195.511.512 0 .94-.17 1.28-.511zm7.861-3.325l-1.43-1.345-2.764 3.09-1.695 1.922 1.11 1.108zm-1.792 4.179l14.34 14.41 1.195-1.195-14.255-14.41zm20.144 18.928l-.341-2.728-2.817-1.961-1.451 1.45 1.963 2.898zM21.08 20.627a.775.775 0 01-.598.255.775.775 0 01-.597-.255L5.374 6.132a.824.824 0 010-1.194.826.826 0 011.195 0l14.51 14.495a.824.824 0 010 1.194z"/></svg>