<svg xmlns="http://www.w3.org/2000/svg" width="56" height="60"><path fill="#fff" d="M12 18a1 1 0 011-1h9a.999.999 0 110 2h-9a1 1 0 01-1-1zm0 7a1 1 0 011-1h5a1 1 0 110 2h-5a1 1 0 01-1-1zm13 0a1 1 0 011-1h7a1 1 0 110 2h-7a1 1 0 01-1-1zm-3 1a.99.99 0 01-.71-.29c-.181-.19-.29-.45-.29-.71 0-.261.109-.521.29-.71.38-.37 1.04-.37 1.42 0 .18.189.29.449.29.71 0 .26-.11.52-.29.71-.19.18-.45.29-.71.29zm14.29-.29c-.181-.19-.29-.45-.29-.71 0-.261.109-.521.29-.71.38-.37 1.04-.37 1.42 0 .18.189.29.449.29.71 0 .26-.11.52-.29.71-.19.18-.44.29-.71.29a.99.99 0 01-.71-.29zM17 31h7a.999.999 0 110 2h-7a1 1 0 110-2zm-4 2c-.26 0-.521-.11-.71-.29-.181-.19-.29-.45-.29-.71 0-.271.1-.521.29-.71.38-.37 1.04-.37 1.42 0a1.011 1.011 0 010 1.42c-.19.18-.45.29-.71.29zm6.535 5.865c-2.173 1.131-2.275 3.707-2.348 5.873-.031.91-1.049 1.258-1.707.707l-2.806-2.351c-.988-.83.434-2.236 1.414-1.415l1.24 1.04c.27-2.261 1.007-4.442 3.197-5.582 1.142-.595 2.152 1.132 1.01 1.728zm8.328 3.355c.629 1.126-1.1 2.133-1.727 1.009-.33-.591-1.858.558-2.267.717a3.35 3.35 0 01-1.688.226c-1.17-.148-2.151-.883-2.67-1.932-.567-1.151 1.159-2.163 1.728-1.01.975 1.978 2.551.216 3.936-.105 1.064-.247 2.151.133 2.688 1.095zM56 2.985v47.281l-4 7V59a1 1 0 11-2 0v-1.734l-1-1.75V60H0V2h19V1a1 1 0 011-1h9a1 1 0 011 1v1h16.18a2.98 2.98 0 012.806-2h4.029A2.988 2.988 0 0156 2.985zM48 11h6V9h-6zM21 2v3h7V2zm-7 2v4h21V4h-5v3H19V4zm-2 6V9H7v44h35V9h-5v1zm35 42.016l-1-1.75V4h-9v3h7v48H5V7h7V4H2v54h45zm2-.532l2 3.5L53.277 51h-4.554zM54 13h-6v36h6zm0-6V2.985A.987.987 0 0053.014 2h-4.03a.986.986 0 00-.984.985V7z"/></svg>