<svg xmlns="http://www.w3.org/2000/svg" width="60" height="60"><path fill="#fff" d="M4.07 13.372a1 1 0 01-1.41-.101 1.005 1.005 0 01.1-1.414 7.989 7.989 0 011.916-1.234 1.001 1.001 0 11.832 1.822 5.97 5.97 0 00-1.437.927zM8 10.902A1 1 0 019 9.9h2a1 1 0 011 1.002 1 1 0 01-1 1.002H9a1 1 0 01-1-1.002zm6 0A1 1 0 0115 9.9h2a1 1 0 011 1.002 1 1 0 01-1 1.002h-2a1 1 0 01-1-1.002zm-2 14.027a1 1 0 01-1 1.002H9a1 1 0 01-1-1.002 1 1 0 011-1.002h2a1 1 0 011 1.002zm12 0a1 1 0 01-1 1.002h-2a1 1 0 01-1-1.002 1 1 0 011-1.002h2a1 1 0 011 1.002zm-6 0a1 1 0 01-1 1.002h-2a1 1 0 01-1-1.002 1 1 0 011-1.002h2a1 1 0 011 1.002zm-12-.215a1 1 0 01-1.324.494 7.997 7.997 0 01-1.914-1.234 1 1 0 111.31-1.515 5.97 5.97 0 001.436.927c.502.23.722.825.493 1.328zm24 .215a1 1 0 01-1 1.002h-2a1 1 0 01-1-1.002 1 1 0 011-1.002h2a1 1 0 011 1.002zm18 0a1 1 0 01-1 1.002h-2a1 1 0 01-1-1.002 1 1 0 011-1.002h2a1 1 0 011 1.002zm6 0a1 1 0 01-1 1.002h-2a1 1 0 01-1-1.002 1 1 0 011-1.002h2a1 1 0 011 1.002zm-18 0a1 1 0 01-1 1.002h-2a1 1 0 01-1-1.002 1 1 0 011-1.002h2a1 1 0 011 1.002zm6 0a1 1 0 01-1 1.002h-2a1 1 0 01-1-1.002 1 1 0 011-1.002h2a1 1 0 011 1.002zM6 54.773a1 1 0 01-1.325.493 7.997 7.997 0 01-1.914-1.233 1 1 0 111.31-1.515 6 6 0 001.436.927c.502.23.722.825.493 1.328zm12 .215a1 1 0 01-1 1.002h-2a1 1 0 01-1-1.002 1 1 0 011-1.002h2a1 1 0 011 1.002zm-6 0a1 1 0 01-1 1.002H9a1 1 0 01-1-1.002 1 1 0 011-1.002h2a1 1 0 011 1.002zm24 0a1 1 0 01-1 1.002h-2a1 1 0 01-1-1.002 1 1 0 011-1.002h2a1 1 0 011 1.002zm3-1.002h2a1 1 0 011 1.002 1 1 0 01-1 1.002h-2a1 1 0 01-1-1.002 1 1 0 011-1.002zm5 1.002a1 1 0 011-1.002h2a1 1 0 011 1.002 1 1 0 01-1 1.002h-2a1 1 0 01-1-1.002zm-14 0a1 1 0 01-1 1.002h-2a1 1 0 01-1-1.002 1 1 0 011-1.002h2a1 1 0 011 1.002zm20 0a1 1 0 011-1.002h2a1 1 0 011 1.002 1 1 0 01-1 1.002h-2a1 1 0 01-1-1.002zm-26 0a1 1 0 01-1 1.002h-2a1 1 0 01-1-1.002 1 1 0 011-1.002h2a1 1 0 011 1.002zm24-20.04a4.008 4.008 0 010 8.016 4.008 4.008 0 010-8.015zm-2 4.009c0 1.105.897 2.004 2 2.004a2.004 2.004 0 000-4.008c-1.103 0-2 .899-2 2.004zM60 5.892v54.106H7.152C3.209 59.998 0 56.783 0 52.832V13.908c0-4.42 3.589-8.016 8-8.016h16.76L30.196.445a1.14 1.14 0 011.609 0l2.046 2.05 2.046-2.05a1.14 1.14 0 011.609 0l5.436 5.447zM35.266 3.913L19.29 19.92h5.39L35.938 8.641a1.08 1.08 0 011.519-.012l11.267 11.29h5.391l-14-14.027-3.412-3.419zm1.436 6.795l-9.193 9.211h18.387zm-9.114-4.816l-14 14.027h2.874L32.437 3.913 31 2.473zM2 13.908c0 3.315 2.69 6.011 6 6.011h2.76l9.306-9.324a.974.974 0 01.633-.634l2.06-2.065H8c-3.308 0-6 2.696-6 6.012zm56 20.039H47c-2.757 0-5 2.247-5 5.01 0 2.762 2.243 5.01 5 5.01h11zm0-12.02H7.998c-.287 0-.571-.017-.851-.048-.093-.01-.183-.029-.275-.042a7.672 7.672 0 01-.55-.091c-.108-.023-.212-.055-.318-.082-.16-.042-.32-.083-.477-.134-.11-.036-.217-.078-.325-.12a8.247 8.247 0 01-.435-.174 6.605 6.605 0 01-.318-.154 8.202 8.202 0 01-.403-.214 8.355 8.355 0 01-1.848-1.456c.017.065.024.132.043.197a.987.987 0 01-.241.956v27.41c0 .575.08 1.146.241 1.693a.987.987 0 01-.241.955v2.209c0 2.846 2.312 5.162 5.152 5.162H58V55.99h-1a1 1 0 01-1-1.002 1 1 0 011-1.002h1V45.97H47c-3.86 0-7-3.147-7-7.013 0-3.867 3.14-7.014 7-7.014h11v-6.012h-1a1 1 0 01-1-1.002 1 1 0 011-1.002h1zm0-2.008V7.896H44.942l2.01 2.014c.017 0 .03-.01.048-.01h2a1 1 0 011 1.002 1 1 0 01-1 1.002h-.058l8 8.015zm-2-9.017a1 1 0 01-1 1.002h-2a1 1 0 01-1-1.002A1 1 0 0153 9.9h2a1 1 0 011 1.002z"/></svg>