<svg xmlns="http://www.w3.org/2000/svg" width="59" height="58"><path fill="#fff" d="M59 16v26H11v5h42a1 1 0 110 2h-6.031c1.225.912 2.031 2.359 2.031 4 0 2.757-2.243 5-5 5s-5-2.243-5-5c0-1.641.806-3.088 2.03-4H22.97c1.225.912 2.03 2.359 2.03 4 0 2.757-2.242 5-4.999 5-2.757 0-5-2.243-5-5 0-1.641.806-3.088 2.03-4H10a1 1 0 01-1-1V9H7.858c-.447 1.72-2 3-3.858 3-2.206 0-4-1.794-4-4s1.794-4 4-4c1.858 0 3.41 1.28 3.858 3H10a1 1 0 011 1v8h3V8h14V0h18v3h10v13zM5.722 9H5a1 1 0 110-2h.722C5.375 6.405 4.737 6 4 6c-1.103 0-2 .897-2 2s.897 2 2 2c.737 0 1.375-.405 1.722-1zM23 53c0-1.654-1.346-3-3-3s-3 1.346-3 3 1.346 3 3 3 3-1.346 3-3zm24 0c0-1.654-1.346-3-3-3s-3 1.346-3 3 1.346 3 3 3 3-1.346 3-3zM11 32h6v-6h-6zm8 0h6v-6h-6zm0-14v6h6v-6zm8 0v6h6v-6zm8 0v6h6v-6zm8 0v6h6v-6zm-8 14h6v-6h-6zm-2-6h-6v6h6zm-14 8v6h6v-6zm8 6h6v-6h-6zm8 0h6v-6h-6zm8 0h6v-6h-6zm6-8v-6h-6v6zm2 0h6v-6h-6zm0-14v6h6v-6zM46 5v11h8V5zM30 16h14V2H30zm-14 0h12v-6H16zm-5 2v6h6v-6zm0 22h6v-6h-6zm46 0v-6h-6v6z"/></svg>