<svg xmlns="http://www.w3.org/2000/svg" width="70" height="63" viewBox="0 0 70 63"><g><g><path fill="#e72f43" d="M70 21v8.162c-.006 2.196-2.812 3.92-7 5.208v7.625c0 .363-.08.713-.228 1.05 2.408.998 3.628 2.191 3.71 3.621h.018v8.162c-.01 3.882-8.747 6.292-18.454 7.417-.072.014-.137.043-.213.043-.022 0-.04-.012-.063-.012-1.871.213-3.773.376-5.655.494-.04.003-.074.023-.115.023-.021 0-.04-.011-.06-.013-2.39.146-4.74.22-6.94.22s-4.55-.074-6.94-.218c-.02 0-.038.013-.06.013-.04 0-.076-.02-.116-.024a114.25 114.25 0 0 1-5.654-.493c-.023 0-.041.013-.063.013-.076 0-.142-.03-.213-.044C12.246 61.123 3.51 58.714 3.5 54.833v-8.165h.017c.016-.248.07-.489.156-.726-2.278-1.09-3.67-2.4-3.673-3.944v-8.165h.012C.125 31.87 2.415 30.332 7 29.151V21h.017c.012-.2.047-.398.105-.592C2.866 19.117.006 17.382 0 15.165V7h.02C.437.2 28.3 0 31.5 0c3.2 0 31.062.2 31.48 7H63v8.162a2.632 2.632 0 0 1-.25 1.092c4.747 1.19 7.122 2.75 7.237 4.746zm-9.333 20.993v-4.828c-.933.587-2.113 1.123-3.5 1.606v5.562c1.342-.525 2.363-1.07 2.976-1.61l.398-.349a.742.742 0 0 0 .126-.381zm-24.086 5.73c.253-.01.504-.022.753-.034v-5.826c-1.169.054-2.343.09-3.518.112l-.186.004c-.32.006-.641.01-.962.014v5.827c.422-.003.85-.005 1.266-.014.171-.003.343-.005.513-.01.722-.018 1.431-.04 2.134-.073zm-6.926.096l.678.006v-5.831c-.32-.003-.641-.008-.962-.014l-.185-.003a122.82 122.82 0 0 1-3.518-.112v5.824c.626.03 1.257.057 1.893.078l.196.007c.529.016 1.06.029 1.595.038.102.001.2.005.303.007zM8.708 45.272c.9.245 1.888.484 2.959.712v-5.695a52.132 52.132 0 0 1-3.5-.806v5.636l.113.033.428.12zm23.977 9.54c-1.175-.022-2.35-.058-3.518-.113v5.825c1.498.073 3.054.12 4.666.135v-5.832a166.058 166.058 0 0 1-1.148-.016zm4.444 0c-.32.006-.642.01-.962.014v5.832c1.612-.015 3.168-.061 4.666-.135v-5.825a129.94 129.94 0 0 1-3.704.114zm6.038-.247v5.818c1.212-.085 2.378-.19 3.5-.307v-5.794c-1.148.111-2.317.206-3.5.283zM49 59.8a80.383 80.383 0 0 0 3.5-.535v-5.728c-1.13.183-2.297.348-3.5.493zm5.833-.985c1.29-.274 2.46-.565 3.5-.864v-5.637c-1.09.294-2.26.563-3.5.807zm-43.166-6.5v5.636c1.04.3 2.21.59 3.5.864v-5.694a51.57 51.57 0 0 1-3.5-.807zm5.833 6.952a81.83 81.83 0 0 0 3.5.534v-5.77a85.942 85.942 0 0 1-3.5-.493zm5.833.81c1.121.117 2.288.221 3.5.306v-5.818a116.536 116.536 0 0 1-3.5-.284zm0-12.53v-5.814a116.558 116.558 0 0 1-3.5-.284v5.793c.084.008.167.018.251.027l.355.036c.946.092 1.914.171 2.894.241zM14 40.704v5.728a81.81 81.81 0 0 0 3.5.534v-5.77a83.527 83.527 0 0 1-3.5-.492zM40.95 47.45a95.508 95.508 0 0 0 2.216-.208v-5.794c-1.148.112-2.317.205-3.5.284v5.818a158.09 158.09 0 0 0 1.284-.1zM49 46.433v-5.728c-1.13.183-2.297.347-3.5.492v5.77c1.233-.16 2.401-.34 3.5-.534zm2.333-.45c1.29-.275 2.46-.565 3.5-.865v-5.636c-1.09.294-2.26.562-3.5.806zM35.637 34.965c.554.013 1.127.015 1.695.02v-5.824l-.962-.014-.185-.004c-1.175-.02-2.35-.057-3.518-.112v5.825l.135.006c.842.04 1.7.075 2.577.097.085.002.173.003.258.006zM9.43 18.63c.579.15 1.184.293 1.805.43l.432.09v-5.694a52.417 52.417 0 0 1-3.5-.806v5.636c.403.116.822.23 1.263.344zm19.755-3.486a122.82 122.82 0 0 1-3.518-.112v5.82c1.535.078 3.096.119 4.666.134V15.16a166.058 166.058 0 0 1-1.148-.017zm4.444.003l-.962.014v5.827c.42-.005.845-.006 1.26-.014l.379-.008c.808-.019 1.606-.045 2.39-.08.017 0 .033 0 .05-.002.199-.009.389-.023.587-.032V15.03c-1.169.054-2.344.09-3.518.112l-.186.004zm27.038.011v-4.827c-.933.586-2.113 1.122-3.5 1.605v5.55c1.213-.47 2.16-.955 2.775-1.434l.425-.33.032.007c.174-.202.268-.393.268-.57zM49 19.59v-5.718c-1.13.183-2.297.347-3.5.492v5.763c1.23-.16 2.394-.34 3.5-.537zm5.833-1.317V12.65a52.41 52.41 0 0 1-3.5.806v5.685a49.98 49.98 0 0 0 3.5-.868zM39.667 14.9v5.813a104.42 104.42 0 0 0 3.5-.31v-5.786c-1.148.11-2.317.205-3.5.283zm-16.334 5.808V14.9a116.558 116.558 0 0 1-3.5-.283v5.789c1.141.12 2.313.217 3.5.302zM14 13.872v5.73c.127.021.252.044.381.067.647.108 1.306.212 1.98.309.147.02.29.043.439.064.229.031.469.056.7.086v-5.764a85.94 85.94 0 0 1-3.5-.492zm16.333 20.842V28.9a118.093 118.093 0 0 1-3.5-.283v5.794c.032.002.062.007.094.01l.457.047c.712.07 1.44.135 2.187.193l.473.035c.094.007.195.012.29.02zm-7.917-.876c.671.105 1.37.203 2.084.297v-5.77a85.915 85.915 0 0 1-3.5-.493v5.722c.44.077.874.156 1.336.23a.806.806 0 0 1 .08.014zm-7.25-7.19v5.616c1.042.306 2.211.6 3.5.876v-5.685a51.566 51.566 0 0 1-3.5-.806zm-5.833-2.317v4.83c.001.037.013.076.02.112l.078.13c.385.644 1.568 1.368 3.402 2.076v-5.543c-1.387-.483-2.568-1.019-3.5-1.605zm31.296 4.816l-.962.014v5.824c1.575-.017 3.133-.059 4.666-.135v-5.819c-1.169.054-2.344.09-3.518.112l-.186.004zM56.001 33.6v-5.728c-1.13.183-2.297.347-3.5.492v5.764c.3-.038.607-.074.902-.116a77.089 77.089 0 0 0 2.489-.392l.11-.02zm-7.885 1.004c.696-.058 1.373-.13 2.05-.2v-5.788c-1.147.112-2.316.205-3.5.283v5.808c.442-.031.89-.055 1.326-.09.042-.005.082-.01.124-.013zm13.718-2.318V26.65c-1.09.294-2.26.562-3.5.806v5.692c.091-.02.187-.037.277-.057a54.321 54.321 0 0 0 2.714-.662l.51-.143zm-.913-14.065c-.07.046-.158.09-.231.137-.13.083-.27.165-.41.245-.122.07-.235.142-.366.21-.29.155-.602.305-.925.45-.085.04-.175.076-.263.115-.303.132-.62.261-.95.386l-.2.077c-.39.145-.796.284-1.218.419-.143.045-.295.09-.443.136-.243.073-.49.147-.741.218-5.467 1.562-13.323 2.57-21.8 2.7a102.559 102.559 0 0 1-4.51-.015 118.692 118.692 0 0 1-4.342-.178c-.008 0-.014.005-.022.005-.015 0-.028-.009-.043-.009-1.986-.117-3.92-.284-5.785-.497l-.005.001c-.009 0-.016-.004-.025-.004-2.737-.313-5.306-.722-7.624-1.222a56.95 56.95 0 0 1-1.4-.314c-.08-.02-.17-.036-.249-.055-.014.028-.014.046-.02.068.134.789 1.926 1.834 5.105 2.816 4.126 1.276 10.586 2.444 18.771 2.805.418.018.836.037 1.264.05.35.01.7.023 1.055.03.966.023 1.946.038 2.956.038s1.99-.015 2.956-.036c.356-.01.706-.02 1.055-.032.427-.013.845-.031 1.263-.048 8.186-.362 14.644-1.53 18.772-2.805 3.205-.99 5-2.044 5.108-2.837-.133-.482-1.51-1.721-6.733-2.854zM2.35 7.1c.141.789 1.93 1.83 5.103 2.81 4.126 1.276 10.586 2.444 18.771 2.805.418.018.836.037 1.264.05.35.011.7.023 1.055.03.966.023 1.946.038 2.956.038a127.413 127.413 0 0 0 4.01-.069c.428-.014.846-.031 1.264-.049 8.186-.361 14.644-1.53 18.772-2.805 3.171-.98 4.962-2.021 5.103-2.81-.182-1.738-9.912-4.767-29.15-4.767-19.236 0-28.966 3.029-29.148 4.767zm3.482 10.422v-5.586c-1.387-.483-2.568-1.019-3.5-1.605v4.83c.003.658 1.231 1.51 3.5 2.361zM2.346 33.906c.104.791 1.9 1.846 5.108 2.838 4.126 1.275 10.586 2.443 18.771 2.805.418.017.836.036 1.264.049.35.011.7.023 1.055.031.966.022 1.946.037 2.956.037.758 0 1.497-.01 2.23-.022.291-.005.582-.01.867-.017.266-.007.525-.016.788-.025 8.844-.284 15.804-1.51 20.161-2.857 1.444-.447 2.604-.905 3.451-1.348-3.912.845-8.538 1.433-13.468 1.724-.01 0-.019.006-.03.006-.005 0-.01-.004-.015-.004-1.483.086-2.987.15-4.513.18a103.982 103.982 0 0 1-4.622.005c-1.65-.028-3.266-.092-4.846-.184l-.004.001h-.008c-4.918-.289-9.432-.871-13.213-1.676a60.29 60.29 0 0 1-.92-.198c-.095-.023-.195-.044-.29-.066-4.117-.945-7.424-2.212-9.022-3.824-.017-.019-.044-.035-.061-.054-4.33 1.062-5.51 2.16-5.639 2.599zm2.807 10.182l.014-.014.666.26v-5.565c-1.387-.483-2.568-1.018-3.5-1.605v4.831c.003.588.988 1.334 2.82 2.093zm4.18 13.1v-5.585c-1.387-.483-2.568-1.019-3.5-1.606v4.831c.003.657 1.231 1.51 3.5 2.36zm54.834-2.362v-4.828c-.933.587-2.113 1.123-3.5 1.606v5.585c2.269-.852 3.498-1.706 3.5-2.363zm-3.03-9.919c-.102.073-.231.144-.343.216-.12.08-.244.157-.374.234-.106.062-.21.125-.323.186-2.046 1.135-5.028 2.05-8.473 2.758-.082.018-.164.034-.245.05a84.269 84.269 0 0 1-6.972 1.088c-.026.003-.047.016-.073.016-.007 0-.012-.004-.02-.004-1.86.214-3.797.385-5.798.505-.006 0-.009.004-.015.004l-.01-.002c-1.642.097-3.322.16-5.024.189-.666.011-1.324.02-1.967.02-.484 0-.978-.005-1.475-.014a116.863 116.863 0 0 1-5.522-.197l-.003.002-.006-.002c-5.855-.346-11.28-1.117-15.528-2.206-.192-.049-.383-.097-.57-.147-.127-.033-.253-.069-.378-.104a33.646 33.646 0 0 1-2.157-.67c.224.782 2.007 1.795 5.093 2.748 4.127 1.275 10.586 2.443 18.771 2.805a132.393 132.393 0 0 0 2.316.08c.967.023 1.949.038 2.959.038s1.99-.015 2.956-.036c.356-.01.706-.02 1.055-.032.427-.014.845-.031 1.263-.049 8.186-.361 14.644-1.53 18.772-2.805 3.186-.984 4.978-2.032 5.105-2.822-.075-.292-.71-1.027-3.013-1.849zm6.53-15.748v-4.827c-.933.586-2.113 1.122-3.5 1.605v5.585c2.269-.852 3.498-1.706 3.5-2.363z"/></g></g></svg>