<svg xmlns="http://www.w3.org/2000/svg" width="61" height="79" viewBox="0 0 61 79"><g><g><path fill="#e72f43" d="M60.486 12.224v24.77c0 13.543-6.097 26.411-16.31 34.425-4.117 3.23-8.564 5.567-13.22 6.947a1.296 1.296 0 0 1-.74 0c-4.656-1.379-9.103-3.716-13.22-6.947C6.783 63.407.686 50.537.686 36.995V12.223a1.3 1.3 0 0 1 1.3-1.298c19.103 0 27.518-9.818 27.602-9.917.494-.59 1.501-.592 1.995-.001.121.141 8.628 9.919 27.603 9.919a1.3 1.3 0 0 1 1.3 1.298zm-2.6 1.284c-15.915-.353-24.525-7.134-27.3-9.793-2.776 2.658-11.385 9.44-27.3 9.793v23.488c0 12.752 5.725 24.86 15.317 32.384 3.747 2.941 7.778 5.09 11.983 6.387 4.205-1.299 8.236-3.446 11.983-6.387 9.592-7.526 15.317-19.632 15.317-32.384zm-26.57-2.577c3.92 2.66 10.612 6.087 20.234 7.312a1.3 1.3 0 0 1 1.136 1.288v17.467c0 11.172-4.983 21.751-13.329 28.3-2.631 2.065-5.423 3.682-8.297 4.807a1.294 1.294 0 0 1-.949 0c-2.875-1.126-5.666-2.744-8.295-4.806-8.347-6.55-13.33-17.13-13.33-28.301V19.53a1.3 1.3 0 0 1 1.136-1.288c9.621-1.225 16.314-4.652 20.233-7.312a1.3 1.3 0 0 1 1.462 0zm-.73 2.63c-4.063 2.627-10.531 5.775-19.5 7.1v16.334c0 10.383 4.612 20.2 12.337 26.261 2.284 1.792 4.692 3.216 7.163 4.24 2.471-1.022 4.879-2.448 7.164-4.24 7.725-6.06 12.336-15.877 12.336-26.26V20.661c-8.969-1.325-15.438-4.473-19.5-7.1zm-2.664 34.406l17.285-19.723a1.302 1.302 0 0 1 1.834-.122c.541.472.596 1.291.123 1.831l-18.2 20.768a1.3 1.3 0 0 1-.935.443h-.043c-.345 0-.675-.137-.92-.38l-10.4-10.385a1.3 1.3 0 0 1 1.838-1.835z"/></g></g></svg>