<svg xmlns="http://www.w3.org/2000/svg" width="41" height="40" viewBox="0 0 41 40"><g><g><path fill="#fff" d="M40.505 39.645c-.23.24-.54.355-.842.355-.302 0-.612-.124-.843-.355l-9.719-9.72A16.982 16.982 0 0 1 17.92 34.11C8.52 34.11.866 26.456.866 17.055S8.51 0 17.92 0c9.4 0 17.053 7.645 17.053 17.055 0 4.275-1.579 8.187-4.186 11.184l9.72 9.72a1.2 1.2 0 0 1 0 1.686zm-22.595-7.92c8.088 0 14.659-6.59 14.659-14.67S25.998 2.395 17.91 2.395c-8.078 0-14.658 6.572-14.658 14.66 0 8.089 6.58 14.67 14.658 14.67z"/></g></g></svg>