<svg xmlns="http://www.w3.org/2000/svg" width="41" height="32" viewBox="0 0 41 32"><g><g><path fill="#fff" d="M1.735 21.032a3.074 3.074 0 0 1 0-4.345L16.613 1.811A4.333 4.333 0 0 1 19.757.529l8.909.123a3.362 3.362 0 0 1 3.317 3.319v.025c.41.148.829.304 1.248.476 2.274.945 4.277 2.218 5.657 3.598l.074.074c2.225 2.267 1.978 3.992 1.633 4.813-.344.83-1.395 2.219-4.565 2.235-1.28.008-2.734-.214-4.228-.632a4.356 4.356 0 0 1-.969 1.478L15.964 30.914a3.072 3.072 0 0 1-4.343 0zm21.34-11.59a2.541 2.541 0 0 0 3.596 0c.032-.041.074-.082.106-.123 1.01.747 2.258 1.437 3.588 1.996 4.549 1.897 7.546 1.306 7.825.64.09-.213-.025-.911-1.092-2.004a4.874 4.874 0 0 0-.05-.049c-1.124-1.126-2.873-2.226-4.819-3.04-.074-.032-.14-.057-.213-.09l.049 3.582c-.41-.14-.838-.304-1.281-.485a17.724 17.724 0 0 1-3.391-1.848 2.542 2.542 0 0 0-4.31-2.169 2.542 2.542 0 0 0-.009 3.59z"/></g></g></svg>