<svg xmlns="http://www.w3.org/2000/svg" width="25" height="20" viewBox="0 0 25 20"><g><g><path fill="#fff" d="M2.232 20.007c-.562 0-1.049-.189-1.463-.562l7.084-7.22c.178.13.341.251.49.362.53.397.96.708 1.29.93.33.224.77.45 1.318.683.55.233 1.06.348 1.535.348h.028c.474 0 .986-.115 1.534-.348.549-.232.988-.46 1.319-.682.33-.223.76-.534 1.29-.931l.49-.36 7.084 7.218a2.115 2.115 0 0 1-1.463.562zm4.01-8.941L0 17.426V6.447c.41.464.88.877 1.41 1.236a477.351 477.351 0 0 1 4.833 3.384zM25 6.446v10.98l-6.24-6.359a414.15 414.15 0 0 1 4.845-3.385c.53-.37.995-.781 1.395-1.236zM24.337.66c.442.446.663.98.663 1.607 0 .748-.228 1.464-.683 2.146a6.702 6.702 0 0 1-1.702 1.748l-5.117 3.62-1.412 1-.209.152-.384.282c-.302.223-.553.402-.754.54-.2.137-.441.292-.725.462-.284.17-.551.3-.802.384a2.182 2.182 0 0 1-.698.128h-.028c-.213 0-.446-.043-.697-.128a4.176 4.176 0 0 1-.802-.384c-.284-.17-.526-.324-.726-.462-.2-.138-.451-.317-.753-.54l-.385-.282-.208-.152A911.775 911.775 0 0 0 5.26 8.187 606.18 606.18 0 0 1 2.4 6.16C1.823 5.763 1.279 5.216.767 4.52.256 3.823 0 3.176 0 2.579c0-.74.193-1.355.58-1.848.385-.492.936-.74 1.652-.74h20.536c.604 0 1.127.224 1.57.669z"/></g></g></svg>