<svg xmlns="http://www.w3.org/2000/svg" width="14" height="16" viewBox="0 0 14 16"><g><g><path fill="#fff" d="M13 10.66L7.19 4.572A1.95 1.95 0 0 0 5.7 3.91c-.547 0-1.01.2-1.39.597-.38.4-.57.885-.57 1.457 0 .615.21 1.136.63 1.562l4.1 4.297a.3.3 0 0 0 .22.105c.106 0 .263-.109.47-.325.206-.216.31-.38.31-.492a.328.328 0 0 0-.1-.23l-4.1-4.298a.916.916 0 0 1-.25-.619.7.7 0 0 1 .19-.503.634.634 0 0 1 .48-.199c.226 0 .426.084.6.251l5.81 6.09c.42.44.63.947.63 1.52 0 .447-.14.817-.42 1.111-.28.293-.634.44-1.06.44-.547 0-1.03-.22-1.45-.66L2.04 5.87a2.655 2.655 0 0 1-.76-1.897c0-.741.243-1.373.73-1.898a2.348 2.348 0 0 1 1.79-.785c.68 0 1.283.268 1.81.807l6.06 6.362a.31.31 0 0 0 .23.104c.106 0 .261-.107.465-.32.203-.212.305-.374.305-.487a.33.33 0 0 0-.1-.23L6.52 1.174C5.753.385 4.843-.009 3.79-.009c-1.06 0-1.957.388-2.69 1.163C.366 1.93 0 2.874 0 3.984c0 1.09.376 2.037 1.13 2.84l7.77 8.134c.666.698 1.45 1.048 2.35 1.048.78 0 1.433-.276 1.96-.828.526-.552.79-1.237.79-2.054 0-.958-.334-1.779-1-2.464z"/></g></g></svg>