<svg xmlns="http://www.w3.org/2000/svg" width="46" height="60" viewBox="0 0 46 60"><g><g><path fill="#fff" d="M32.907 53.536c0 1.92-1.58 3.482-3.524 3.482-1.943 0-3.524-1.562-3.524-3.482 0-1.92 1.581-3.482 3.524-3.482s3.524 1.562 3.524 3.482zm-2.013 0c0-.823-.678-1.492-1.51-1.492-.833 0-1.51.67-1.51 1.492 0 .823.677 1.492 1.51 1.492.832 0 1.51-.67 1.51-1.492zm-1.007-20.394c0-2.195 1.806-3.98 4.027-3.98s4.028 1.785 4.028 3.98c0 2.195-1.807 3.98-4.028 3.98-2.222 0-4.027-1.785-4.027-3.98zm2.014 0c0 1.097.903 1.99 2.013 1.99 1.11 0 2.014-.893 2.014-1.99 0-1.098-.903-1.99-2.014-1.99-1.11 0-2.013.892-2.013 1.99zM9.038 11.959a.985.985 0 0 1 0-1.407l2.014-1.99c.393-.389 1.03-.389 1.423 0a.986.986 0 0 1 0 1.407l-2.014 1.99a1.009 1.009 0 0 1-.711.291c-.258 0-.516-.097-.712-.291zm35.987 20.264l-.575.569a8.363 8.363 0 0 1 1.546 4.826c0 2.507-1.094 4.826-3.02 6.438v3.015h2.014v12.932H18.81V47.071h2.014v-1.787l-10.83-10.66a1.495 1.495 0 0 1-.228-.24 4.461 4.461 0 0 1-2.031-3.73c0-1.662.933-3.1 2.299-3.871L5.09 21.898l-3.789-3.743a3.256 3.256 0 0 1 0-4.635L13.699 1.27a3.348 3.348 0 0 1 4.69 0l3.788 3.744.8.79a4.549 4.549 0 0 1 3.385-1.513c2.498 0 4.53 2.008 4.53 4.476 0 .182-.018.36-.04.537.18-.021.36-.04.544-.04 2.498 0 4.53 2.01 4.53 4.478 0 .182-.017.359-.04.537.18-.022.361-.04.544-.04 2.498 0 4.531 2.009 4.531 4.477 0 .182-.018.359-.04.537.18-.022.36-.04.544-.04 2.498 0 4.53 2.009 4.53 4.477 0 1.3-.575 2.509-1.53 3.345l.56.554c.626.618.971 1.441.971 2.317 0 .875-.345 1.698-.971 2.317zm-3.56-11.02c-.773 0-1.49.352-1.96.932l3.534 3.493a2.473 2.473 0 0 0 .944-1.937c0-1.372-1.13-2.487-2.518-2.488zm-5.035-4.974c-.772 0-1.489.352-1.96.932l3.535 3.493a2.473 2.473 0 0 0 .944-1.937c0-1.372-1.13-2.488-2.519-2.488zm-5.034-4.975c-.772 0-1.49.353-1.96.933l3.535 3.492a2.473 2.473 0 0 0 .943-1.936c0-1.372-1.13-2.488-2.518-2.489zm-6.995-4.042l3.535 3.493a2.473 2.473 0 0 0 .944-1.937c0-1.372-1.129-2.487-2.517-2.487a2.53 2.53 0 0 0-1.962.931zM5.091 19.085L19.33 5.016 16.965 2.68a1.305 1.305 0 0 0-.43-.28c-.07-.03-.15-.028-.224-.044a1.269 1.269 0 0 0-.535 0c-.075.016-.154.015-.225.044a1.295 1.295 0 0 0-.429.28L2.726 14.927a1.28 1.28 0 0 0 0 1.822zm1.423 1.406l5.755 5.687h10.065c2.498 0 4.531 2.009 4.531 4.477 0 2.468-2.033 4.477-4.53 4.477h-1.003l8.03 7.934a1.316 1.316 0 0 0 1.843 0L43.16 31.253l.44-.436a1.277 1.277 0 0 0 0-1.82l-.946-.936-5.034-4.974-.577-.57-4.458-4.404-.577-.57-4.457-4.404-.577-.57-5.034-4.974-1.186-1.172zm3.235 10.164c0 1.372 1.128 2.487 2.517 2.487h10.068c1.389 0 2.517-1.115 2.517-2.487s-1.128-2.487-2.517-2.487H12.266c-.043 0-.084.008-.125.014l-.418.047c-1.127.247-1.973 1.239-1.974 2.426zM34.92 58.013v-3.408c0-3.058-2.518-5.546-5.612-5.546h-8.484v8.954zm8.055-8.954h-8.522c1.52 1.379 2.48 3.35 2.48 5.546v3.408h6.042zm-10.348-4.587a3.33 3.33 0 0 1-2.347.958 3.33 3.33 0 0 1-2.345-.958l-9.453-9.341h-5.12l8.938 8.798c.088.064.136.1.181.14l.356.297v2.704h18.124V43.08l.401-.298c1.665-1.239 2.62-3.12 2.62-5.165A6.38 6.38 0 0 0 43 34.224z"/></g></g></svg>