<svg xmlns="http://www.w3.org/2000/svg" width="47" height="60" viewBox="0 0 47 60"><g><g><path fill="#fff" d="M47 2.914v54.172A2.918 2.918 0 0 1 44.086 60H2.914A2.918 2.918 0 0 1 0 57.086V2.914A2.918 2.918 0 0 1 2.914 0h41.172A2.918 2.918 0 0 1 47 2.914zm-2 0A.915.915 0 0 0 44.086 2H2.914A.915.915 0 0 0 2 2.914v54.172c0 .504.41.914.914.914h41.172c.504 0 .914-.41.914-.914zM5 44h11v11H5zm2 9h7v-7H7zm11-9h11v11H18zm2 9h7v-7h-7zm11-22h11v24H31zm2 22h7V33h-7zM5 31h11v11H5zm2 9h7v-7H7zm11-9h11v11H18zm2 9h7v-7h-7zM5 18h11v11H5zm2 9h7v-7H7zm11-9h11v11H18zm2 9h7v-7h-7zm11-9h11v11H31zm2 9h7v-7h-7zM5 5h37v10H5zm2 8h33V7H7z"/></g></g></svg>